<svg width="100%" viewBox="0 0 760 620" fill="none" xmlns="http://www.w3.org/2000/svg" role="img" aria-labelledby="spr-title spr-desc">
  <title id="spr-title">Seed pipeline run flow</title>
  <desc id="spr-desc">How one geode audit-seeds run progresses: picker, cost preview and confirm, pre-flight, the nine-role pipeline with per-phase checkpoints, blend survivor selection, bundle sync, seed pools, and the priors loop back into the picker.</desc>
  <defs>
    <marker id="spr-arrow" markerWidth="10" markerHeight="8" refX="9" refY="4" orient="auto" markerUnits="strokeWidth">
      <path d="M0 0L10 4L0 8Z" fill="#ABA4BC"/>
    </marker>
    <marker id="spr-arrow-accent" markerWidth="10" markerHeight="8" refX="9" refY="4" orient="auto" markerUnits="strokeWidth">
      <path d="M0 0L10 4L0 8Z" fill="#F49BC4"/>
    </marker>
    <style>
      .label { font-family: Fira Code, ui-monospace, SFMono-Regular, Menlo, monospace; fill: #F2EEF5; font-size: 14px; font-weight: 600; }
      .sub { font-family: Fira Code, ui-monospace, SFMono-Regular, Menlo, monospace; fill: #ABA4BC; font-size: 10px; }
      .tag { font-family: Fira Code, ui-monospace, SFMono-Regular, Menlo, monospace; fill: #F49BC4; font-size: 8px; letter-spacing: .12em; }
      .node { fill: #14121B; stroke: rgba(244,155,196,.45); stroke-width: 1; }
      .node-soft { fill: rgba(244,155,196,.06); stroke: rgba(244,155,196,.35); stroke-width: 1; }
      .store { fill: rgba(171,164,188,.07); stroke: rgba(171,164,188,.45); stroke-width: 1; }
      .edge { stroke: #ABA4BC; stroke-width: 1.5; marker-end: url(#spr-arrow); }
      .edge-accent { stroke: #F49BC4; stroke-width: 1.8; marker-end: url(#spr-arrow-accent); }
      .dash { stroke-dasharray: 5 5; }
    </style>
  </defs>

  <rect width="760" height="620" fill="transparent"/>

  <!-- entry -->
  <rect x="30" y="24" width="230" height="54" rx="6" class="node-soft"/>
  <text x="145" y="47" text-anchor="middle" class="label">geode audit-seeds</text>
  <text x="145" y="65" text-anchor="middle" class="sub">generate · resume</text>

  <!-- picker -->
  <rect x="30" y="120" width="230" height="58" rx="6" class="node"/>
  <text x="145" y="143" text-anchor="middle" class="label">picker</text>
  <text x="145" y="162" text-anchor="middle" class="sub">target dimension + prior gaps</text>

  <!-- cost preview / confirm -->
  <rect x="30" y="220" width="230" height="58" rx="6" class="node"/>
  <text x="145" y="243" text-anchor="middle" class="label">cost preview → confirm</text>
  <text x="145" y="262" text-anchor="middle" class="sub">cost_preview.py · dry-run first</text>

  <!-- pre-flight -->
  <rect x="30" y="320" width="230" height="58" rx="6" class="node"/>
  <text x="145" y="343" text-anchor="middle" class="label">pre-flight</text>
  <text x="145" y="362" text-anchor="middle" class="sub">credentials · quota · deps</text>

  <!-- entry chain -->
  <line x1="145" y1="78" x2="145" y2="118" class="edge"/>
  <line x1="145" y1="178" x2="145" y2="218" class="edge"/>
  <line x1="145" y1="278" x2="145" y2="318" class="edge"/>
  <line x1="260" y1="349" x2="322" y2="349" class="edge"/>

  <!-- nine-role pipeline frame -->
  <rect x="326" y="108" width="404" height="330" rx="8" class="node-soft"/>
  <text x="342" y="130" class="tag">NINE-ROLE PIPELINE · ORCHESTRATOR.PY</text>

  <rect x="346" y="146" width="170" height="44" rx="6" class="node"/>
  <text x="431" y="164" text-anchor="middle" class="label">supervisor</text>
  <text x="431" y="180" text-anchor="middle" class="sub">phase guidance</text>

  <rect x="540" y="146" width="170" height="44" rx="6" class="node"/>
  <text x="625" y="164" text-anchor="middle" class="label">literature</text>
  <text x="625" y="180" text-anchor="middle" class="sub">review priors</text>

  <rect x="346" y="212" width="170" height="44" rx="6" class="node"/>
  <text x="431" y="230" text-anchor="middle" class="label">generator</text>
  <text x="431" y="246" text-anchor="middle" class="sub">draft in bulk</text>

  <rect x="540" y="212" width="170" height="44" rx="6" class="node"/>
  <text x="625" y="230" text-anchor="middle" class="label">proximity · critic</text>
  <text x="625" y="246" text-anchor="middle" class="sub">dedupe · cull</text>

  <rect x="346" y="278" width="170" height="44" rx="6" class="node"/>
  <text x="431" y="296" text-anchor="middle" class="label">pilot</text>
  <text x="431" y="312" text-anchor="middle" class="sub">measured difficulty</text>

  <rect x="540" y="278" width="170" height="44" rx="6" class="node"/>
  <text x="625" y="296" text-anchor="middle" class="label">ranker · evolver</text>
  <text x="625" y="312" text-anchor="middle" class="sub">Elo · mutate survivors</text>

  <rect x="346" y="344" width="364" height="44" rx="6" class="node"/>
  <text x="528" y="362" text-anchor="middle" class="label">meta-review</text>
  <text x="528" y="378" text-anchor="middle" class="sub">next-generation priors</text>

  <!-- pipeline internal edges -->
  <line x1="516" y1="168" x2="538" y2="168" class="edge"/>
  <line x1="431" y1="190" x2="431" y2="210" class="edge"/>
  <line x1="516" y1="234" x2="538" y2="234" class="edge"/>
  <line x1="431" y1="256" x2="431" y2="276" class="edge"/>
  <line x1="516" y1="300" x2="538" y2="300" class="edge"/>
  <line x1="625" y1="322" x2="625" y2="342" class="edge"/>

  <!-- checkpoints note -->
  <text x="342" y="424" class="sub">checkpointer.py: per-phase checkpoints, resume continues here</text>

  <!-- tournament -->
  <rect x="326" y="470" width="230" height="58" rx="6" class="node"/>
  <text x="441" y="493" text-anchor="middle" class="label">survivor blend</text>
  <text x="441" y="512" text-anchor="middle" class="sub">z(elo) + confidence·z(difficulty)</text>
  <line x1="528" y1="438" x2="528" y2="452" class="edge"/>
  <line x1="528" y1="452" x2="441" y2="452" class="edge" marker-end="none"/>
  <line x1="441" y1="452" x2="441" y2="468" class="edge"/>

  <!-- bundle + pools -->
  <rect x="586" y="470" width="144" height="58" rx="6" class="store"/>
  <text x="658" y="493" text-anchor="middle" class="label">bundle_sync</text>
  <text x="658" y="512" text-anchor="middle" class="sub">published run page</text>
  <line x1="556" y1="499" x2="584" y2="499" class="edge"/>

  <rect x="30" y="470" width="230" height="58" rx="6" class="store"/>
  <text x="145" y="493" text-anchor="middle" class="label">cycle-input pool</text>
  <text x="145" y="512" text-anchor="middle" class="sub">geode seeds assemble</text>
  <line x1="326" y1="499" x2="262" y2="499" class="edge-accent"/>

  <rect x="30" y="552" width="230" height="44" rx="6" class="store"/>
  <text x="145" y="570" text-anchor="middle" class="label">held-out bench</text>
  <text x="145" y="586" text-anchor="middle" class="sub">version-frozen · never mixed</text>
  <line x1="145" y1="528" x2="145" y2="550" class="edge dash" marker-end="none"/>

  <!-- priors loop back to picker -->
  <path d="M730 372 L744 372 L744 92 L145 92 L145 118" class="edge-accent" fill="none"/>
  <text x="640" y="86" class="tag">PRIORS → NEXT RUN</text>
</svg>
