<svg xmlns="http://www.w3.org/2000/svg" viewBox="0 0 22 12" shape-rendering="crispEdges" role="img" aria-label="Geodi, GEODE's dot mascot"><rect x="8" y="0" width="6" height="1" fill="#F49BC4"/><rect x="1" y="1" width="2" height="1" fill="#E0699F"/><rect x="5" y="1" width="12" height="1" fill="#F49BC4"/><rect x="19" y="1" width="2" height="1" fill="#E0699F"/><rect x="4" y="2" width="14" height="1" fill="#F49BC4"/><rect x="1" y="3" width="3" height="1" fill="#E0699F"/><rect x="4" y="3" width="14" height="1" fill="#F49BC4"/><rect x="18" y="3" width="3" height="1" fill="#E0699F"/><rect x="4" y="4" width="14" height="1" fill="#F49BC4"/><rect x="2" y="5" width="2" height="1" fill="#E0699F"/><rect x="4" y="5" width="14" height="1" fill="#F49BC4"/><rect x="18" y="5" width="2" height="1" fill="#E0699F"/><rect x="4" y="6" width="3" height="1" fill="#F49BC4"/><rect x="7" y="6" width="1" height="1" fill="#2B2233"/><rect x="8" y="6" width="1" height="1" fill="#FFFFFF"/><rect x="9" y="6" width="4" height="1" fill="#F49BC4"/><rect x="13" y="6" width="1" height="1" fill="#2B2233"/><rect x="14" y="6" width="1" height="1" fill="#FFFFFF"/><rect x="15" y="6" width="3" height="1" fill="#F49BC4"/><rect x="4" y="7" width="3" height="1" fill="#F49BC4"/><rect x="7" y="7" width="2" height="1" fill="#2B2233"/><rect x="9" y="7" width="4" height="1" fill="#F49BC4"/><rect x="13" y="7" width="2" height="1" fill="#2B2233"/><rect x="15" y="7" width="3" height="1" fill="#F49BC4"/><rect x="4" y="8" width="1" height="1" fill="#F49BC4"/><rect x="5" y="8" width="2" height="1" fill="#E0699F"/><rect x="7" y="8" width="8" height="1" fill="#F49BC4"/><rect x="15" y="8" width="2" height="1" fill="#E0699F"/><rect x="17" y="8" width="1" height="1" fill="#F49BC4"/><rect x="4" y="9" width="6" height="1" fill="#F49BC4"/><rect x="10" y="9" width="2" height="1" fill="#2B2233"/><rect x="12" y="9" width="6" height="1" fill="#F49BC4"/><rect x="5" y="10" width="12" height="1" fill="#F49BC4"/><rect x="6" y="11" width="10" height="1" fill="#F49BC4"/></svg>