<svg xmlns="http://www.w3.org/2000/svg" width="240" height="240" viewBox="0 0 240 240">
  <defs>
   <radialGradient id="body" gradientUnits="userSpaceOnUse" cx="94" cy="86" r="162">
    <stop offset="0" stop-color="#FBD3E6"/><stop offset=".45" stop-color="#F49BC4"/>
    <stop offset="1" stop-color="#E06CA4"/>
   </radialGradient>
   <radialGradient id="glow" cx="50%" cy="45%" r="62%">
    <stop offset="0" stop-color="#F49BC4" stop-opacity=".16"/>
    <stop offset="1" stop-color="#F49BC4" stop-opacity="0"/>
   </radialGradient>
  </defs>
<g>
   <g class="gill" style="animation-delay:0.0s"><g transform="rotate(-27 62 74)"><ellipse cx="62" cy="74" rx="8" ry="30" fill="url(#body)"/><circle cx="54" cy="65" r="6" fill="url(#body)"/><circle cx="70" cy="78" r="6" fill="url(#body)"/></g></g><g class="gill" style="animation-delay:0.3s"><g transform="rotate(-55 48 88)"><ellipse cx="48" cy="88" rx="8" ry="32" fill="url(#body)"/><circle cx="40" cy="78" r="6" fill="url(#body)"/><circle cx="56" cy="93" r="6" fill="url(#body)"/></g></g><g class="gill" style="animation-delay:0.6s"><g transform="rotate(-79 40 106)"><ellipse cx="40" cy="106" rx="8" ry="30" fill="url(#body)"/><circle cx="32" cy="97" r="6" fill="url(#body)"/><circle cx="48" cy="110" r="6" fill="url(#body)"/></g></g><g class="gill" style="animation-delay:0.15s"><g transform="rotate(9 178 74)"><ellipse cx="178" cy="74" rx="8" ry="30" fill="url(#body)"/><circle cx="170" cy="65" r="6" fill="url(#body)"/><circle cx="186" cy="78" r="6" fill="url(#body)"/></g></g><g class="gill" style="animation-delay:0.45s"><g transform="rotate(37 192 88)"><ellipse cx="192" cy="88" rx="8" ry="32" fill="url(#body)"/><circle cx="184" cy="78" r="6" fill="url(#body)"/><circle cx="200" cy="93" r="6" fill="url(#body)"/></g></g><g class="gill" style="animation-delay:0.75s"><g transform="rotate(61 200 106)"><ellipse cx="200" cy="106" rx="8" ry="30" fill="url(#body)"/><circle cx="192" cy="97" r="6" fill="url(#body)"/><circle cx="208" cy="110" r="6" fill="url(#body)"/></g></g>
   <ellipse cx="120" cy="120" rx="84" ry="64" fill="url(#body)"/>
   <ellipse cx="120" cy="170" rx="56" ry="44" fill="url(#body)"/>
   <path d="M82,158 Q62,168 55,179" stroke="url(#body)" stroke-width="20" stroke-linecap="round" fill="none"/>
   <path d="M158,158 Q178,168 185,179" stroke="url(#body)" stroke-width="20" stroke-linecap="round" fill="none"/>
   <ellipse cx="98" cy="208" rx="15" ry="11" fill="url(#body)"/>
   <ellipse cx="142" cy="208" rx="15" ry="11" fill="url(#body)"/>
   <ellipse cx="92" cy="86" rx="34" ry="20" fill="#FBD3E6" opacity=".45" transform="rotate(-16 92 86)"/>
   <circle cx="74" cy="140" r="11" fill="#FCDDEC" opacity=".6"/>
   <circle cx="166" cy="140" r="11" fill="#FCDDEC" opacity=".6"/>
   <ellipse class="eye" cx="90" cy="116" rx="10" ry="12" fill="#241019"/>
   <ellipse class="eye" cx="150" cy="116" rx="10" ry="12" fill="#241019"/>
   <circle cx="86" cy="111" r="3.4" fill="#FCDDEC"/>
   <circle cx="146" cy="111" r="3.4" fill="#FCDDEC"/>
   <path d="M96,134 Q120,152 144,134" stroke="#241019" stroke-width="4.5" fill="none" stroke-linecap="round"/>
</g>
</svg>
